<?xml version="1.0" encoding="UTF-8" standalone="no"?>
<!-- Svg Vector Icons : http://www.onlinewebfonts.com/icon -->

<svg
   version="1.1"
   x="0px"
   y="0px"
   viewBox="0 0 941.96436 1089.2483"
   enable-background="new 0 0 1000 1000"
   xml:space="preserve"
   id="svg8"
   sodipodi:docname="3e072932bc8f9f56abe269d50a0977d1.svg"
   width="941.96436"
   height="1089.2483"
   inkscape:version="1.1.1 (3bf5ae0d25, 2021-09-20)"
   xmlns:inkscape="http://www.inkscape.org/namespaces/inkscape"
   xmlns:sodipodi="http://sodipodi.sourceforge.net/DTD/sodipodi-0.dtd"
   xmlns:xlink="http://www.w3.org/1999/xlink"
   xmlns="http://www.w3.org/2000/svg"
   xmlns:svg="http://www.w3.org/2000/svg"
   xmlns:rdf="http://www.w3.org/1999/02/22-rdf-syntax-ns#"
   xmlns:cc="http://creativecommons.org/ns#"
   xmlns:dc="http://purl.org/dc/elements/1.1/"><title
   id="title76693">sql</title><defs
   id="defs12"><linearGradient
     id="linearGradient70599"
     inkscape:swatch="solid"><stop
       style="stop-color:#000000;stop-opacity:1;"
       offset="0"
       id="stop70597" /></linearGradient><linearGradient
     inkscape:collect="always"
     xlink:href="#linearGradient70599"
     id="linearGradient70601"
     x1="485.72241"
     y1="983.95251"
     x2="959.68134"
     y2="983.95251"
     gradientUnits="userSpaceOnUse" /></defs><sodipodi:namedview
   id="namedview10"
   pagecolor="#ffffff"
   bordercolor="#666666"
   borderopacity="1.0"
   inkscape:pageshadow="2"
   inkscape:pageopacity="0"
   inkscape:pagecheckerboard="0"
   showgrid="false"
   height="1001px"
   inkscape:zoom="0.3595"
   inkscape:cx="187.76078"
   inkscape:cy="582.75382"
   inkscape:window-width="1680"
   inkscape:window-height="987"
   inkscape:window-x="1672"
   inkscape:window-y="32"
   inkscape:window-maximized="1"
   inkscape:current-layer="svg8" />
<metadata
   id="metadata2"> Svg Vector Icons : http://www.onlinewebfonts.com/icon <rdf:RDF><cc:Work
     rdf:about=""><dc:title>sql</dc:title></cc:Work></rdf:RDF></metadata>
<g
   id="g6"
   transform="translate(-48.8,-10)"><path
     d="M 500,10 C 386.6,10 265.9,22.8 161.3,69.8 113.9,91.1 48.4,131.8 48.9,189.9 h -0.1 v 619.9 c 0,48.3 43.8,83.1 82,104.7 64.3,36.4 139.3,53.9 211.9,64.4 92.8,13.4 188,14.5 281.2,4.2 76.5,-8.4 155,-24.1 224.7,-57.8 44.9,-21.7 102.7,-59.1 102.7,-115.5 V 189.9 C 951.3,89 753,10 500,10 Z m 417.3,799.8 c 0,37.7 -43.4,64.1 -72.3,79.3 -59.6,31.3 -127.8,46.9 -194,56.4 -153.9,22 -332.2,17.9 -476.4,-46.8 -34,-15.2 -92,-44.3 -92,-88.8 V 672.7 c 9.2,8.9 19.3,17 29.4,23.8 48.8,32.8 107.2,51 164,63.7 151.5,33.8 318.7,33.2 469.3,-5.1 60.3,-15.3 126.5,-37.8 172,-82.3 z m 0,-206.6 c 0,37.7 -43.4,64.1 -72.3,79.3 -59.6,31.3 -127.8,46.9 -194,56.4 -153.9,22 -332.2,17.9 -476.4,-46.8 -34,-15.2 -92,-44.3 -92,-88.9 V 466 c 9.2,8.9 19.3,17 29.4,23.8 48.8,32.8 107.2,51 164,63.7 151.5,33.8 318.7,33.2 469.3,-5.1 60.3,-15.3 126.5,-37.8 172,-82.3 z m 0,-206.6 c 0,37.7 -43.4,64.1 -72.3,79.3 -59.6,31.3 -127.8,46.9 -194,56.4 -153.9,22 -332.2,17.9 -476.4,-46.8 -34,-15.2 -92,-44.3 -92,-88.9 v -135 c 39.7,39.4 105.2,61.5 151.6,74.8 117.3,33.6 243.7,39.8 364.9,29.4 104.6,-9 239.2,-29.1 318.2,-106.2 z M 909.8,215.4 C 884,260.8 820.4,283.3 774,298.2 686,326.3 592,336 500,336 415.8,336 330.5,327.7 249.2,305.2 199.8,291.5 144.3,272.6 106.7,236 28.5,160 168.6,100 226,81.7 382.2,31.8 563.9,30.5 722.9,67.7 c 49.2,11.5 235.9,61.7 186.9,147.7 z"
     id="path4" /></g>
<text
   xml:space="preserve"
   style="font-style:normal;font-weight:normal;font-size:192px;line-height:1.25;font-family:sans-serif;white-space:pre;inline-size:81.2973;fill:#000000;fill-opacity:1;stroke:none"
   x="522.94855"
   y="1040.3337"
   id="text2899"
   transform="translate(-48.8,-10)"><tspan
     x="522.94855"
     y="1040.3337"
     id="tspan76712"><tspan
       dx="0 51.041691 58.770863"
       style="font-size:74.6667px"
       id="tspan76710">SQL</tspan></tspan></text><ellipse
   style="fill:#ffffff;fill-opacity:1;stroke:#ffffff;stroke-width:1.20384"
   id="path76569"
   cx="670.25433"
   cy="937.14886"
   rx="271.10809"
   ry="151.49751" /><text
   xml:space="preserve"
   style="font-size:266.667px;line-height:1.25;font-family:sans-serif;fill:#000000;fill-opacity:1"
   x="412.95245"
   y="1008.0806"
   id="text24443"><tspan
     sodipodi:role="line"
     id="tspan24441"
     x="412.95245"
     y="1008.0806"
     style="font-style:normal;font-variant:normal;font-weight:normal;font-stretch:normal;font-size:266.667px;font-family:'MS PGothic';-inkscape-font-specification:'MS PGothic';fill:#000000;fill-opacity:1">SQL</tspan></text></svg>
